<?xml version="1.0" standalone="no"?>
<!DOCTYPE svg PUBLIC "-//W3C//DTD SVG 20010904//EN"
 "http://www.w3.org/TR/2001/REC-SVG-20010904/DTD/svg10.dtd">
<svg version="1.0" xmlns="http://www.w3.org/2000/svg"
 width="512.000000pt" height="512.000000pt" viewBox="0 0 512.000000 512.000000"
 preserveAspectRatio="xMidYMid meet">
<metadata>
Created by potrace 1.11, written by Peter Selinger 2001-2013
</metadata>
<g transform="translate(0.000000,512.000000) scale(0.100000,-0.100000)"
fill="#000000" stroke="none">
<path d="M3647 3826 c-52 -59 -290 -336 -387 -450 -14 -17 -41 -48 -61 -70
-20 -23 -107 -124 -194 -226 -87 -102 -161 -186 -164 -188 -3 -1 -6 219 -6
489 0 296 -3 493 -9 497 -16 10 -945 8 -938 -2 3 -6 -3 -6 -14 -1 -18 7 -1587
14 -1611 7 -10 -3 -13 -305 -13 -1463 l0 -1459 1296 0 1295 0 -3 449 -3 449
154 161 c84 89 157 161 161 161 4 0 45 -59 91 -130 46 -72 108 -167 137 -212
29 -45 170 -262 313 -483 l259 -402 475 -1 c327 -1 475 2 475 9 0 6 -29 52
-63 102 -35 51 -126 182 -202 292 -76 110 -163 236 -194 280 -30 44 -104 150
-162 235 -59 85 -111 160 -116 165 -4 6 -26 37 -49 70 -22 33 -127 185 -233
339 -107 153 -194 284 -195 291 0 7 62 78 139 159 77 81 162 171 189 199 54
58 125 132 358 377 86 91 173 183 193 205 21 22 69 74 109 115 39 41 77 82 84
91 11 15 -30 16 -518 16 l-530 0 -63 -71z m-1958 -540 c176 -24 272 -177 226
-361 -14 -54 -55 -106 -116 -142 -73 -45 -124 -51 -462 -51 l-317 0 0 278 c0
176 4 280 10 282 18 6 614 1 659 -6z m79 -1057 c204 -38 307 -193 271 -407
-15 -83 -58 -147 -126 -188 -96 -57 -135 -62 -533 -63 l-360 -2 0 336 0 335
348 0 c191 -1 371 -6 400 -11z"/>
</g>
</svg>
